<?xml version="1.0" encoding="UTF-8" standalone="no"?><!DOCTYPE svg PUBLIC "-//W3C//DTD SVG 1.1//EN" "http://www.w3.org/Graphics/SVG/1.1/DTD/svg11.dtd"><svg width="100%" height="100%" viewBox="0 0 594 249" version="1.1" xmlns="http://www.w3.org/2000/svg" xmlns:xlink="http://www.w3.org/1999/xlink" xml:space="preserve" xmlns:serif="http://www.serif.com/" style="fill-rule:evenodd;clip-rule:evenodd;stroke-linejoin:round;stroke-miterlimit:2;"><g id="Layer1"><g><path d="M7.915,99.949l0,-71.582l49.073,0l0,12.109l-34.619,0l0,16.943l29.882,0l0,12.11l-29.882,0l0,30.42l-14.454,0Z" style="fill:#fff;fill-rule:nonzero;"/><path d="M81.939,99.949l-13.721,0l0,-51.856l12.744,0l0,7.373c2.181,-3.483 4.143,-5.778 5.884,-6.885c1.742,-1.106 3.719,-1.66 5.933,-1.66c3.125,0 6.136,0.863 9.033,2.588l-4.248,11.963c-2.311,-1.497 -4.46,-2.246 -6.445,-2.246c-1.921,0 -3.549,0.529 -4.883,1.587c-1.335,1.058 -2.385,2.97 -3.15,5.737c-0.765,2.767 -1.147,8.561 -1.147,17.383l0,16.016Z" style="fill:#fff;fill-rule:nonzero;"/><path d="M104.546,73.288c0,-4.557 1.123,-8.968 3.369,-13.232c2.246,-4.264 5.428,-7.52 9.546,-9.766c4.118,-2.246 8.716,-3.369 13.794,-3.369c7.845,0 14.274,2.547 19.287,7.642c5.013,5.094 7.52,11.531 7.52,19.311c0,7.845 -2.531,14.348 -7.593,19.507c-5.062,5.16 -11.434,7.739 -19.116,7.739c-4.753,0 -9.286,-1.074 -13.599,-3.222c-4.313,-2.149 -7.593,-5.298 -9.839,-9.448c-2.246,-4.151 -3.369,-9.205 -3.369,-15.162Zm14.063,0.733c0,5.143 1.22,9.082 3.662,11.816c2.441,2.735 5.452,4.102 9.033,4.102c3.581,0 6.584,-1.367 9.009,-4.102c2.425,-2.734 3.638,-6.705 3.638,-11.914c0,-5.078 -1.213,-8.984 -3.638,-11.719c-2.425,-2.734 -5.428,-4.101 -9.009,-4.101c-3.581,0 -6.592,1.367 -9.033,4.101c-2.442,2.735 -3.662,6.674 -3.662,11.817Z" style="fill:#fff;fill-rule:nonzero;"/><path d="M215.972,99.949l-13.721,0l0,-26.465c0,-5.599 -0.293,-9.221 -0.879,-10.865c-0.586,-1.643 -1.538,-2.921 -2.856,-3.833c-1.318,-0.911 -2.905,-1.367 -4.761,-1.367c-2.376,0 -4.508,0.651 -6.396,1.953c-1.888,1.302 -3.182,3.028 -3.882,5.176c-0.7,2.149 -1.05,6.12 -1.05,11.914l0,23.487l-13.721,0l0,-51.856l12.745,0l0,7.617c4.524,-5.859 10.221,-8.789 17.089,-8.789c3.028,0 5.795,0.545 8.301,1.636c2.507,1.09 4.403,2.482 5.689,4.175c1.285,1.692 2.181,3.613 2.685,5.761c0.505,2.149 0.757,5.225 0.757,9.229l0,32.227Z" style="fill:#fff;fill-rule:nonzero;"/><path d="M253.667,48.093l0,10.938l-9.375,0l0,20.898c0,4.232 0.09,6.698 0.269,7.397c0.179,0.7 0.586,1.278 1.221,1.734c0.634,0.456 1.407,0.683 2.319,0.683c1.269,0 3.109,-0.439 5.518,-1.318l1.171,10.645c-3.19,1.367 -6.803,2.05 -10.839,2.05c-2.474,0 -4.704,-0.415 -6.69,-1.245c-1.986,-0.83 -3.442,-1.904 -4.37,-3.222c-0.928,-1.319 -1.571,-3.101 -1.929,-5.347c-0.293,-1.595 -0.439,-4.818 -0.439,-9.668l0,-22.607l-6.299,0l0,-10.938l6.299,0l0,-10.303l13.769,-8.007l0,18.31l9.375,0Z" style="fill:#fff;fill-rule:nonzero;"/><path d="M291.119,99.949l0,-71.582l30.419,0c7.65,0 13.208,0.642 16.675,1.928c3.467,1.286 6.242,3.573 8.325,6.861c2.084,3.287 3.125,7.047 3.125,11.279c0,5.371 -1.578,9.806 -4.736,13.306c-3.157,3.499 -7.877,5.704 -14.16,6.616c3.125,1.823 5.705,3.825 7.739,6.006c2.035,2.181 4.777,6.054 8.228,11.621l8.74,13.965l-17.285,0l-10.449,-15.577c-3.711,-5.566 -6.25,-9.073 -7.618,-10.522c-1.367,-1.449 -2.815,-2.441 -4.345,-2.979c-1.53,-0.537 -3.955,-0.805 -7.276,-0.805l-2.929,0l0,29.883l-14.453,0Zm14.453,-41.309l10.693,0c6.934,0 11.263,-0.293 12.988,-0.879c1.726,-0.586 3.076,-1.595 4.053,-3.027c0.977,-1.433 1.465,-3.223 1.465,-5.371c0,-2.409 -0.643,-4.354 -1.929,-5.835c-1.286,-1.481 -3.1,-2.417 -5.444,-2.808c-1.172,-0.163 -4.688,-0.244 -10.547,-0.244l-11.279,0l0,18.164Z" style="fill:#fff;fill-rule:nonzero;"/><path d="M373.443,63.913l-12.451,-2.246c1.399,-5.013 3.808,-8.724 7.226,-11.132c3.418,-2.409 8.496,-3.614 15.235,-3.614c6.119,0 10.677,0.725 13.671,2.173c2.995,1.449 5.103,3.288 6.324,5.518c1.22,2.229 1.831,6.323 1.831,12.28l-0.147,16.016c0,4.557 0.22,7.918 0.659,10.083c0.44,2.164 1.262,4.484 2.466,6.958l-13.574,0c-0.358,-0.912 -0.798,-2.263 -1.318,-4.053c-0.228,-0.814 -0.391,-1.351 -0.489,-1.611c-2.343,2.278 -4.85,3.987 -7.519,5.126c-2.669,1.14 -5.518,1.709 -8.545,1.709c-5.339,0 -9.546,-1.448 -12.622,-4.345c-3.076,-2.897 -4.614,-6.56 -4.614,-10.987c0,-2.929 0.699,-5.542 2.099,-7.837c1.4,-2.294 3.361,-4.052 5.884,-5.273c2.523,-1.221 6.16,-2.287 10.913,-3.198c6.413,-1.205 10.856,-2.328 13.33,-3.369l0,-1.368c0,-2.636 -0.651,-4.516 -1.953,-5.639c-1.302,-1.123 -3.76,-1.685 -7.373,-1.685c-2.441,0 -4.346,0.48 -5.713,1.441c-1.367,0.96 -2.474,2.645 -3.32,5.053Zm18.359,11.133c-1.758,0.586 -4.541,1.286 -8.349,2.1c-3.809,0.814 -6.299,1.611 -7.471,2.392c-1.791,1.27 -2.686,2.881 -2.686,4.834c0,1.921 0.716,3.581 2.149,4.981c1.432,1.4 3.255,2.099 5.468,2.099c2.474,0 4.834,-0.813 7.081,-2.441c1.66,-1.237 2.75,-2.751 3.271,-4.541c0.358,-1.172 0.537,-3.402 0.537,-6.689l0,-2.735Z" style="fill:#fff;fill-rule:nonzero;"/><path d="M465.972,99.949l-13.721,0l0,-26.465c0,-5.599 -0.293,-9.221 -0.879,-10.865c-0.586,-1.643 -1.538,-2.921 -2.856,-3.833c-1.318,-0.911 -2.905,-1.367 -4.761,-1.367c-2.376,0 -4.508,0.651 -6.396,1.953c-1.888,1.302 -3.182,3.028 -3.882,5.176c-0.7,2.149 -1.05,6.12 -1.05,11.914l0,23.487l-13.721,0l0,-51.856l12.745,0l0,7.617c4.524,-5.859 10.221,-8.789 17.089,-8.789c3.028,0 5.795,0.545 8.301,1.636c2.507,1.09 4.403,2.482 5.689,4.175c1.285,1.692 2.181,3.613 2.685,5.761c0.505,2.149 0.757,5.225 0.757,9.229l0,32.227Z" style="fill:#fff;fill-rule:nonzero;"/><path d="M478.619,103.367l15.673,1.904c0.261,1.823 0.863,3.076 1.807,3.76c1.302,0.976 3.353,1.464 6.152,1.464c3.581,0 6.267,-0.537 8.057,-1.611c1.204,-0.716 2.116,-1.872 2.734,-3.467c0.424,-1.139 0.635,-3.239 0.635,-6.299l0,-7.568c-4.101,5.599 -9.277,8.399 -15.527,8.399c-6.966,0 -12.484,-2.946 -16.553,-8.838c-3.19,-4.655 -4.785,-10.45 -4.785,-17.383c0,-8.692 2.091,-15.332 6.274,-19.922c4.183,-4.59 9.383,-6.885 15.601,-6.885c6.413,0 11.702,2.816 15.869,8.447l0,-7.275l12.842,0l0,46.533c0,6.12 -0.505,10.694 -1.514,13.721c-1.009,3.027 -2.425,5.404 -4.248,7.129c-1.823,1.725 -4.256,3.076 -7.3,4.053c-3.043,0.976 -6.893,1.464 -11.548,1.464c-8.789,0 -15.022,-1.505 -18.701,-4.516c-3.678,-3.011 -5.517,-6.828 -5.517,-11.45c0,-0.456 0.016,-1.009 0.049,-1.66Zm12.255,-30.42c0,5.501 1.066,9.529 3.199,12.085c2.132,2.555 4.76,3.833 7.885,3.833c3.353,0 6.185,-1.311 8.496,-3.931c2.312,-2.621 3.467,-6.502 3.467,-11.646c0,-5.371 -1.107,-9.358 -3.32,-11.962c-2.214,-2.605 -5.013,-3.907 -8.398,-3.907c-3.288,0 -5.998,1.278 -8.13,3.833c-2.133,2.556 -3.199,6.454 -3.199,11.695Z" style="fill:#fff;fill-rule:nonzero;"/><path d="M571.001,83.445l13.672,2.295c-1.758,5.013 -4.533,8.829 -8.325,11.45c-3.792,2.62 -8.537,3.93 -14.233,3.93c-9.017,0 -15.69,-2.946 -20.02,-8.837c-3.418,-4.72 -5.127,-10.678 -5.127,-17.872c0,-8.593 2.246,-15.323 6.738,-20.19c4.493,-4.867 10.173,-7.3 17.041,-7.3c7.715,0 13.803,2.547 18.262,7.642c4.46,5.094 6.592,12.899 6.397,23.413l-34.375,0c0.097,4.069 1.204,7.235 3.32,9.497c2.116,2.262 4.753,3.394 7.91,3.394c2.149,0 3.955,-0.586 5.42,-1.758c1.465,-1.172 2.572,-3.06 3.32,-5.664Zm0.782,-13.868c-0.098,-3.971 -1.123,-6.99 -3.077,-9.057c-1.953,-2.067 -4.329,-3.101 -7.128,-3.101c-2.995,0 -5.469,1.091 -7.422,3.272c-1.953,2.181 -2.914,5.143 -2.881,8.886l20.508,0Z" style="fill:#fff;fill-rule:nonzero;"/><path d="M99.322,199.949l0,-71.582l53.076,0l0,12.109l-38.623,0l0,15.869l35.937,0l0,12.061l-35.937,0l0,19.482l39.99,0l0,12.061l-54.443,0Z" style="fill:#fff;fill-rule:nonzero;"/><path d="M161.089,185.154l13.77,-2.1c0.586,2.669 1.774,4.696 3.564,6.079c1.791,1.384 4.297,2.075 7.52,2.075c3.548,0 6.217,-0.651 8.008,-1.953c1.204,-0.911 1.806,-2.132 1.806,-3.662c0,-1.042 -0.325,-1.904 -0.976,-2.588c-0.684,-0.651 -2.214,-1.253 -4.59,-1.806c-11.068,-2.442 -18.083,-4.672 -21.045,-6.69c-4.102,-2.799 -6.152,-6.689 -6.152,-11.67c0,-4.492 1.774,-8.268 5.322,-11.328c3.548,-3.06 9.049,-4.59 16.504,-4.59c7.096,0 12.369,1.156 15.82,3.467c3.451,2.311 5.827,5.729 7.129,10.254l-12.94,2.393c-0.553,-2.019 -1.603,-3.565 -3.149,-4.639c-1.546,-1.074 -3.752,-1.611 -6.616,-1.611c-3.613,0 -6.201,0.504 -7.764,1.513c-1.041,0.716 -1.562,1.644 -1.562,2.783c0,0.977 0.455,1.807 1.367,2.491c1.237,0.911 5.509,2.197 12.817,3.857c7.308,1.66 12.411,3.695 15.308,6.104c2.864,2.441 4.297,5.843 4.297,10.205c0,4.752 -1.986,8.838 -5.957,12.255c-3.972,3.418 -9.847,5.127 -17.627,5.127c-7.064,0 -12.655,-1.432 -16.773,-4.296c-4.118,-2.865 -6.811,-6.755 -8.081,-11.67Z" style="fill:#fff;fill-rule:nonzero;"/><path d="M266.753,163.425l-13.525,2.442c-0.456,-2.702 -1.489,-4.737 -3.101,-6.104c-1.611,-1.367 -3.702,-2.051 -6.274,-2.051c-3.418,0 -6.144,1.18 -8.179,3.54c-2.034,2.36 -3.052,6.307 -3.052,11.841c0,6.152 1.034,10.498 3.101,13.037c2.067,2.539 4.842,3.809 8.325,3.809c2.604,0 4.737,-0.741 6.397,-2.222c1.66,-1.481 2.832,-4.028 3.515,-7.641l13.477,2.294c-1.4,6.185 -4.085,10.857 -8.057,14.014c-3.971,3.158 -9.293,4.736 -15.967,4.736c-7.584,0 -13.631,-2.392 -18.139,-7.177c-4.509,-4.785 -6.763,-11.41 -6.763,-19.873c0,-8.562 2.262,-15.227 6.787,-19.995c4.525,-4.769 10.645,-7.154 18.36,-7.154c6.315,0 11.336,1.359 15.063,4.077c3.727,2.718 6.405,6.861 8.032,12.427Z" style="fill:#fff;fill-rule:nonzero;"/><path d="M287.408,163.913l-12.452,-2.246c1.4,-5.013 3.809,-8.724 7.227,-11.132c3.418,-2.409 8.496,-3.614 15.234,-3.614c6.12,0 10.677,0.725 13.672,2.173c2.995,1.449 5.103,3.288 6.323,5.518c1.221,2.229 1.832,6.323 1.832,12.28l-0.147,16.016c0,4.557 0.22,7.918 0.659,10.083c0.44,2.164 1.262,4.484 2.466,6.958l-13.574,0c-0.358,-0.912 -0.798,-2.263 -1.319,-4.053c-0.227,-0.814 -0.39,-1.351 -0.488,-1.611c-2.344,2.278 -4.85,3.987 -7.519,5.126c-2.67,1.14 -5.518,1.709 -8.545,1.709c-5.339,0 -9.546,-1.448 -12.622,-4.345c-3.077,-2.897 -4.615,-6.56 -4.615,-10.987c0,-2.929 0.7,-5.542 2.1,-7.837c1.4,-2.294 3.361,-4.052 5.884,-5.273c2.523,-1.221 6.16,-2.287 10.913,-3.198c6.413,-1.205 10.856,-2.328 13.33,-3.369l0,-1.368c0,-2.636 -0.651,-4.516 -1.953,-5.639c-1.302,-1.123 -3.76,-1.685 -7.373,-1.685c-2.442,0 -4.346,0.48 -5.713,1.441c-1.367,0.96 -2.474,2.645 -3.32,5.053Zm18.359,11.133c-1.758,0.586 -4.541,1.286 -8.35,2.1c-3.808,0.814 -6.298,1.611 -7.47,2.392c-1.791,1.27 -2.686,2.881 -2.686,4.834c0,1.921 0.716,3.581 2.149,4.981c1.432,1.4 3.255,2.099 5.468,2.099c2.474,0 4.834,-0.813 7.08,-2.441c1.661,-1.237 2.751,-2.751 3.272,-4.541c0.358,-1.172 0.537,-3.402 0.537,-6.689l0,-2.735Z" style="fill:#fff;fill-rule:nonzero;"/><path d="M332.378,148.093l12.793,0l0,7.617c1.66,-2.604 3.907,-4.72 6.739,-6.347c2.832,-1.628 5.973,-2.442 9.423,-2.442c6.023,0 11.133,2.36 15.332,7.08c4.2,4.72 6.299,11.296 6.299,19.727c0,8.659 -2.116,15.389 -6.347,20.19c-4.232,4.802 -9.359,7.202 -15.381,7.202c-2.865,0 -5.461,-0.569 -7.788,-1.709c-2.328,-1.139 -4.777,-3.092 -7.349,-5.859l0,26.123l-13.721,0l0,-71.582Zm13.575,25.049c0,5.827 1.155,10.132 3.466,12.915c2.312,2.783 5.127,4.175 8.448,4.175c3.19,0 5.843,-1.278 7.959,-3.833c2.115,-2.556 3.173,-6.747 3.173,-12.573c0,-5.437 -1.09,-9.473 -3.271,-12.11c-2.181,-2.637 -4.883,-3.955 -8.106,-3.955c-3.352,0 -6.136,1.294 -8.349,3.882c-2.214,2.588 -3.32,6.421 -3.32,11.499Z" style="fill:#fff;fill-rule:nonzero;"/><path d="M423.882,183.445l13.672,2.295c-1.758,5.013 -4.533,8.829 -8.325,11.45c-3.792,2.62 -8.537,3.93 -14.234,3.93c-9.016,0 -15.69,-2.946 -20.019,-8.837c-3.418,-4.72 -5.127,-10.678 -5.127,-17.872c0,-8.593 2.246,-15.323 6.738,-20.19c4.492,-4.867 10.173,-7.3 17.041,-7.3c7.715,0 13.802,2.547 18.262,7.642c4.46,5.094 6.592,12.899 6.396,23.413l-34.375,0c0.098,4.069 1.205,7.235 3.321,9.497c2.116,2.262 4.752,3.394 7.91,3.394c2.148,0 3.955,-0.586 5.42,-1.758c1.465,-1.172 2.572,-3.06 3.32,-5.664Zm0.781,-13.868c-0.097,-3.971 -1.123,-6.99 -3.076,-9.057c-1.953,-2.067 -4.329,-3.101 -7.129,-3.101c-2.994,0 -5.468,1.091 -7.422,3.272c-1.953,2.181 -2.913,5.143 -2.88,8.886l20.507,0Z" style="fill:#fff;fill-rule:nonzero;"/><path d="M444.634,185.154l13.77,-2.1c0.586,2.669 1.774,4.696 3.564,6.079c1.791,1.384 4.297,2.075 7.52,2.075c3.548,0 6.217,-0.651 8.007,-1.953c1.205,-0.911 1.807,-2.132 1.807,-3.662c0,-1.042 -0.325,-1.904 -0.976,-2.588c-0.684,-0.651 -2.214,-1.253 -4.59,-1.806c-11.068,-2.442 -18.083,-4.672 -21.045,-6.69c-4.102,-2.799 -6.153,-6.689 -6.153,-11.67c0,-4.492 1.775,-8.268 5.323,-11.328c3.548,-3.06 9.049,-4.59 16.504,-4.59c7.096,0 12.369,1.156 15.82,3.467c3.45,2.311 5.827,5.729 7.129,10.254l-12.94,2.393c-0.553,-2.019 -1.603,-3.565 -3.149,-4.639c-1.546,-1.074 -3.752,-1.611 -6.616,-1.611c-3.614,0 -6.201,0.504 -7.764,1.513c-1.042,0.716 -1.562,1.644 -1.562,2.783c0,0.977 0.455,1.807 1.367,2.491c1.237,0.911 5.509,2.197 12.817,3.857c7.308,1.66 12.411,3.695 15.308,6.104c2.864,2.441 4.297,5.843 4.297,10.205c0,4.752 -1.986,8.838 -5.957,12.255c-3.972,3.418 -9.847,5.127 -17.627,5.127c-7.064,0 -12.655,-1.432 -16.773,-4.296c-4.118,-2.865 -6.811,-6.755 -8.081,-11.67Z" style="fill:#fff;fill-rule:nonzero;"/></g></g></svg>