<?xml version="1.0" encoding="UTF-8"?>
<svg width="97px" height="67px" viewBox="0 0 97 67" version="1.1" xmlns="http://www.w3.org/2000/svg" xmlns:xlink="http://www.w3.org/1999/xlink">
    <title>Untitled</title>
    <g id="Page-1" stroke="none" stroke-width="1" fill="none" fill-rule="evenodd">
        <g id="fre_logo" transform="translate(-4.100000, 0.966667)" fill="#EFBA09" fill-rule="nonzero">
            <g id="Group" transform="translate(5.242973, 0.013529)">
                <path d="M83.4396304,48.3281743 C84.2024507,48.8586323 85.2471738,49.5850297 87.2600434,49.5850297 C89.2727027,49.5850297 90.3172154,48.8586323 91.0800357,48.3281743 C91.7961528,47.8304759 92.1767215,47.5910219 92.9952913,47.5910219 C93.6842699,47.5910219 94.242816,47.2629315 94.242816,46.8580725 C94.242816,46.4533371 93.6842699,46.1251232 92.9952913,46.1251232 C90.982632,46.1251232 89.937909,46.8515206 89.1748782,47.381855 C88.4587611,47.8798007 88.0784028,48.1190074 87.2600434,48.1190074 C86.4414737,48.1190074 86.060905,47.8796771 85.3449983,47.381855 C84.5821779,46.8515206 83.5374548,46.1251232 81.5245852,46.1251232 C79.5117156,46.1251232 78.4669925,46.8516442 77.7041722,47.3821022 C76.9884758,47.8798007 76.6081175,48.1190074 75.7899685,48.1190074 C74.9713987,48.1190074 74.5912508,47.8798007 73.8753441,47.381855 C73.1125237,46.8515206 72.068011,46.1251232 70.0555622,46.1251232 C68.0431133,46.1251232 66.9983902,46.8515206 66.2355699,47.381855 C65.5196632,47.8798007 65.1395152,48.1190074 64.3209455,48.1190074 C63.5025861,48.1190074 63.1224381,47.8798007 62.4067418,47.381855 C61.6439214,46.8515206 60.5991984,46.1251232 58.5865391,46.1251232 C56.5740903,46.1251232 55.5293672,46.8516442 54.7669676,47.3821022 C54.0514816,47.8798007 53.6711233,48.1190074 52.8529743,48.1190074 C52.0350356,48.1190074 51.6548877,47.8798007 50.9391914,47.3821022 C50.1765814,46.8516442 49.1320687,46.1251232 47.1196198,46.1251232 C45.1069606,46.1251232 44.0626583,46.8516442 43.3000483,47.3821022 C42.5845623,47.8798007 42.204204,48.1190074 41.3864757,48.1190074 C40.5683267,48.1190074 40.1879684,47.8798007 39.4722721,47.381855 C38.7096621,46.8515206 37.664939,46.1251232 35.6527005,46.1251232 C33.6402517,46.1251232 32.595739,46.8516442 31.833129,47.3821022 C31.117643,47.8798007 30.7372847,48.1190074 29.9195564,48.1190074 C29.1020385,48.1190074 28.7214699,47.8798007 28.0061943,47.3821022 C27.2437947,46.8516442 26.199282,46.1251232 24.1872538,46.1251232 C22.174805,46.1251232 21.1300819,46.8516442 20.3674719,47.3821022 C19.6521963,47.8798007 19.2716277,48.1190074 18.453689,48.1190074 C17.6357504,48.1190074 17.2551817,47.8798007 16.5396957,47.3821022 C15.7772961,46.8516442 14.732573,46.1251232 12.7201242,46.1251232 C10.7074649,46.1251232 9.66316261,46.8516442 8.900763,47.3821022 C8.18506667,47.8798007 7.80491874,48.1190074 6.98698009,48.1190074 C6.16862068,48.1190074 5.78847276,47.8798007 5.07256606,47.3821022 C4.3097457,46.8516442 3.26544336,46.1251232 1.25278413,46.1251232 C0.564015826,46.1251232 0.00546975438,46.4533371 0.00546975438,46.8580725 C0.00546975438,47.2629315 0.564015826,47.5910219 1.25278413,47.5910219 C2.07093316,47.5910219 2.45129146,47.8302286 3.16719816,48.3281743 C3.92980814,48.8586323 4.97432085,49.5850297 6.98698009,49.5850297 C8.99921857,49.5850297 10.0437313,48.8586323 10.8061309,48.3281743 C11.5218272,47.8302286 11.9019751,47.5910219 12.7201242,47.5910219 C13.5380628,47.5910219 13.9182108,47.8302286 14.6341175,48.3280507 C15.3967274,48.8585087 16.4412402,49.5850297 18.453689,49.5850297 C20.4661379,49.5850297 21.5106506,48.8585087 22.2732606,48.3280507 C22.9889569,47.8302286 23.3693152,47.5910219 24.1872538,47.5910219 C25.0047718,47.5910219 25.3849197,47.8302286 26.1004056,48.3280507 C26.8625949,48.8585087 27.9071076,49.5850297 29.9195564,49.5850297 C31.9320053,49.5850297 32.9763076,48.8585087 33.7389176,48.3280507 C34.4544036,47.8302286 34.8347619,47.5910219 35.6527005,47.5910219 C36.4704288,47.5910219 36.8507871,47.8302286 37.5664834,48.3280507 C38.3293038,48.8585087 39.3738165,49.5850297 41.3864757,49.5850297 C43.3987142,49.5850297 44.4432269,48.8585087 45.2058369,48.3280507 C45.9213229,47.8302286 46.3016812,47.5910219 47.1196198,47.5910219 C47.9375585,47.5910219 48.3179168,47.8302286 49.0334027,48.3280507 C49.7958023,48.8585087 50.8405254,49.5850297 52.8529743,49.5850297 C54.8656335,49.5850297 55.9101462,48.8585087 56.6725458,48.3280507 C57.3880318,47.8302286 57.7683901,47.5910219 58.5865391,47.5910219 C59.4048985,47.5910219 59.7852568,47.8304759 60.5009532,48.3281743 C61.2637735,48.8586323 62.3084966,49.5850297 64.3209455,49.5850297 C66.3338151,49.5850297 67.3783278,48.8586323 68.1411481,48.3281743 C68.8570548,47.8304759 69.2372028,47.5910219 70.0555622,47.5910219 C70.8737112,47.5910219 71.2538591,47.8302286 71.9697658,48.3280507 C72.7325862,48.8585087 73.7770989,49.5850297 75.7899685,49.5850297 C77.8024174,49.5850297 78.8471405,48.8586323 79.6099608,48.3281743 C80.3256571,47.8304759 80.7062258,47.5910219 81.5245852,47.5910219 C82.343155,47.5910219 82.7237237,47.8304759 83.4396304,48.3281743 Z" id="Path"></path>
                <path d="M92.9952913,42.35876 C90.982632,42.35876 89.937909,43.0854047 89.1748782,43.6156154 C88.4587611,44.1135611 88.0784028,44.3527679 87.2600434,44.3527679 C86.4414737,44.3527679 86.060905,44.1135611 85.3449983,43.6156154 C84.5821779,43.0851574 83.5374548,42.35876 81.5245852,42.35876 C79.5117156,42.35876 78.4669925,43.0854047 77.7041722,43.6157391 C76.9884758,44.1135611 76.6081175,44.3527679 75.7899685,44.3527679 C74.9713987,44.3527679 74.5912508,44.1135611 73.8753441,43.6156154 C73.1125237,43.0851574 72.068011,42.35876 70.0555622,42.35876 C68.0431133,42.35876 66.9983902,43.0854047 66.2355699,43.6156154 C65.5196632,44.1135611 65.1395152,44.3527679 64.3209455,44.3527679 C63.5025861,44.3527679 63.1224381,44.1135611 62.4067418,43.6156154 C61.6439214,43.0854047 60.5991984,42.35876 58.5865391,42.35876 C56.5740903,42.35876 55.5293672,43.0854047 54.7669676,43.6157391 C54.0514816,44.1135611 53.6711233,44.3527679 52.8529743,44.3527679 C52.0350356,44.3527679 51.6548877,44.1135611 50.9391914,43.6157391 C50.1765814,43.0854047 49.1320687,42.35876 47.1196198,42.35876 C45.1069606,42.35876 44.0626583,43.0854047 43.3000483,43.6157391 C42.5845623,44.1135611 42.204204,44.3527679 41.3864757,44.3527679 C40.5683267,44.3527679 40.1879684,44.1135611 39.4722721,43.6156154 C38.7096621,43.0854047 37.664939,42.35876 35.6527005,42.35876 C33.6402517,42.35876 32.595739,43.0854047 31.833129,43.6157391 C31.117643,44.1135611 30.7372847,44.3527679 29.9195564,44.3527679 C29.1020385,44.3527679 28.7214699,44.1135611 28.0061943,43.6157391 C27.2437947,43.0854047 26.199282,42.35876 24.1872538,42.35876 C22.174805,42.35876 21.1300819,43.0854047 20.3674719,43.6157391 C19.6517756,44.1135611 19.2714173,44.3527679 18.453689,44.3527679 C17.6357504,44.3527679 17.2553921,44.1135611 16.5396957,43.6157391 C15.7772961,43.0854047 14.7327834,42.35876 12.7201242,42.35876 C10.7074649,42.35876 9.66316261,43.0854047 8.900763,43.6157391 C8.18506667,44.1135611 7.80491874,44.3527679 6.98698009,44.3527679 C6.16862068,44.3527679 5.78847276,44.1135611 5.07256606,43.6157391 C4.3097457,43.0854047 3.26544336,42.35876 1.25278413,42.35876 C0.564015826,42.35876 0.00546975438,42.6870976 0.00546975438,43.091833 C0.00546975438,43.496692 0.564015826,43.8247823 1.25278413,43.8247823 C2.07093316,43.8247823 2.45129146,44.0641127 3.16719816,44.5619347 C3.92980814,45.0922691 4.97432085,45.8187902 6.98698009,45.8187902 C8.99921857,45.8187902 10.0437313,45.0922691 10.8061309,44.5619347 C11.5218272,44.0639891 11.9019751,43.8247823 12.7201242,43.8247823 C13.5380628,43.8247823 13.9182108,44.0639891 14.6341175,44.5618111 C15.3967274,45.0922691 16.4410298,45.8187902 18.453689,45.8187902 C20.4663482,45.8187902 21.5106506,45.0922691 22.2732606,44.5618111 C22.9889569,44.0639891 23.3693152,43.8247823 24.1872538,43.8247823 C25.0047718,43.8247823 25.3849197,44.0639891 26.1004056,44.5618111 C26.8625949,45.0921455 27.9071076,45.8187902 29.9195564,45.8187902 C31.9320053,45.8187902 32.9763076,45.0921455 33.7389176,44.5618111 C34.4544036,44.0639891 34.8347619,43.8247823 35.6527005,43.8247823 C36.4704288,43.8247823 36.8507871,44.0639891 37.5664834,44.5618111 C38.3293038,45.0921455 39.3738165,45.8187902 41.3864757,45.8187902 C43.3987142,45.8187902 44.4432269,45.0921455 45.2058369,44.5618111 C45.9213229,44.0639891 46.3016812,43.8247823 47.1196198,43.8247823 C47.9373481,43.8247823 48.3177064,44.0639891 49.0334027,44.5618111 C49.7958023,45.0922691 50.8405254,45.8187902 52.8529743,45.8187902 C54.8656335,45.8187902 55.9101462,45.0922691 56.6725458,44.5618111 C57.3880318,44.0639891 57.7683901,43.8247823 58.5865391,43.8247823 C59.4048985,43.8247823 59.7852568,44.0641127 60.5009532,44.5619347 C61.2637735,45.0922691 62.3084966,45.8187902 64.3209455,45.8187902 C66.3338151,45.8187902 67.3783278,45.0922691 68.1411481,44.5619347 C68.8570548,44.0641127 69.2372028,43.8247823 70.0555622,43.8247823 C70.8737112,43.8247823 71.2538591,44.0639891 71.9697658,44.5619347 C72.7325862,45.0922691 73.7770989,45.8187902 75.7899685,45.8187902 C77.8024174,45.8187902 78.8471405,45.0922691 79.6099608,44.5619347 C80.3256571,44.0641127 80.7062258,43.8247823 81.5245852,43.8247823 C82.343155,43.8247823 82.7237237,44.0641127 83.4396304,44.5619347 C84.2024507,45.0922691 85.2471738,45.8187902 87.2600434,45.8187902 C89.2727027,45.8187902 90.3172154,45.0922691 91.0800357,44.5619347 C91.7961528,44.0641127 92.1767215,43.8247823 92.9952913,43.8247823 C93.6842699,43.8247823 94.242816,43.496692 94.242816,43.091833 C94.242816,42.6870976 93.6842699,42.35876 92.9952913,42.35876 Z" id="Path"></path>
                <path d="M89.1748782,39.8494995 C88.4587611,40.3471979 88.0784028,40.5865283 87.2600434,40.5865283 C86.4414737,40.5865283 86.060905,40.3471979 85.3449983,39.8493759 C84.5821779,39.3189179 83.5374548,38.5925205 81.5245852,38.5925205 C80.8682147,38.5925205 80.3161903,38.670649 79.8420046,38.7931575 L73.1135756,33.1692641 L73.1135756,23.8636879 L91.0604708,38.8643632 C90.2198117,39.1242147 89.6433837,39.5235108 89.1748782,39.8494995 Z M75.7899685,40.5865283 C74.9713987,40.5865283 74.5912508,40.3471979 73.8753441,39.8493759 C73.1125237,39.3190415 72.068011,38.5925205 70.0555622,38.5925205 C68.0431133,38.5925205 66.9983902,39.3190415 66.2355699,39.8494995 C65.5196632,40.3471979 65.1395152,40.5865283 64.3209455,40.5865283 C63.5025861,40.5865283 63.1224381,40.3471979 62.4067418,39.8494995 C61.6439214,39.3190415 60.5991984,38.5925205 58.5865391,38.5925205 C56.5740903,38.5925205 55.5293672,39.3190415 54.7669676,39.8494995 C54.0514816,40.3471979 53.6711233,40.5865283 52.8529743,40.5865283 C52.0350356,40.5865283 51.6548877,40.3471979 50.9391914,39.8494995 C50.3661294,39.4509452 49.6338135,38.9418736 48.4517154,38.7131746 L48.4517154,34.8021748 L72.017521,34.8021748 L77.8968758,39.7164832 C77.8310284,39.7617286 77.7662328,39.8063558 77.7041722,39.8494995 C76.9884758,40.3471979 76.6081175,40.5865283 75.7899685,40.5865283 Z M43.3000483,39.8494995 C42.5845623,40.3471979 42.204204,40.5865283 41.3864757,40.5865283 C40.5683267,40.5865283 40.1879684,40.3471979 39.4722721,39.8494995 C38.7096621,39.3190415 37.664939,38.5925205 35.6527005,38.5925205 C33.6402517,38.5925205 32.595739,39.3190415 31.833129,39.8494995 C31.117643,40.3471979 30.7372847,40.5865283 29.9195564,40.5865283 C29.1020385,40.5865283 28.7214699,40.3471979 28.0061943,39.8494995 C27.2437947,39.3190415 26.199282,38.5925205 24.1872538,38.5925205 C22.174805,38.5925205 21.1300819,39.3190415 20.3674719,39.8494995 C19.6517756,40.3471979 19.2714173,40.5865283 18.453689,40.5865283 C17.6357504,40.5865283 17.2553921,40.3471979 16.5396957,39.8494995 C16.4784766,39.8068502 16.4145225,39.7625939 16.3493062,39.7179667 L23.4164392,33.8109811 C23.4166496,33.8109811 23.4166496,33.8108574 23.4166496,33.8108574 L45.9568763,14.9706353 L45.9568763,38.6847418 C44.6754811,38.8958866 43.8996175,39.432402 43.3000483,39.8494995 Z M8.900763,39.8494995 C8.18506667,40.3471979 7.80491874,40.5865283 6.98698009,40.5865283 C6.16862068,40.5865283 5.78847276,40.3471979 5.07256606,39.8494995 C4.60406056,39.5236344 4.02805335,39.1243383 3.18760455,38.8643632 L21.1349205,23.8636879 L21.1349205,33.1690168 L14.4052293,38.7938992 C13.9304125,38.6710198 13.377757,38.5925205 12.7201242,38.5925205 C10.7074649,38.5925205 9.66316261,39.3190415 8.900763,39.8494995 Z M21.1349205,1.51843762 L21.1349205,21.3146215 L2.50030888,36.8903819 L2.50030888,1.51843762 L21.1349205,1.51843762 Z M66.2793279,27.456858 L70.6189469,23.8519439 L70.6189469,31.0840238 L66.2793279,27.456858 Z M48.4517154,27.8224055 L63.6670994,27.8224055 L70.2636232,33.3362761 L48.4517154,33.3362761 L48.4517154,27.8224055 Z M48.4517154,21.0170655 L55.3703235,21.0170655 C55.4199721,21.0170655 55.4668857,21.0117498 55.5148513,21.0085357 L61.9132017,26.3563832 L48.4517154,26.3563832 L48.4517154,21.0170655 Z M53.7712619,19.5511669 L48.4517154,19.5511669 L48.4517154,15.1046406 L53.7712619,19.5511669 Z M29.4908118,26.1847972 L23.6295493,21.3135089 L23.6295493,1.51843762 L70.6189469,1.51843762 L70.6189469,21.3133853 L64.7560013,26.1838082 L48.1445676,12.299184 C47.9110512,12.1038627 47.5302721,11.9876589 47.1240377,11.9876589 C46.7178032,11.9876589 46.3372346,12.1038627 46.1035078,12.299184 L29.4908118,26.1847972 Z M23.6295493,23.8529329 L27.9672749,27.4582178 L23.6295493,31.0837766 L23.6295493,23.8529329 Z M91.6785531,36.83228 L73.1135756,21.3146215 L73.1135756,1.51843762 L91.7462939,1.51843762 L91.6785531,36.83228 Z M93.8776047,0.267392377 C93.6438779,0.129678504 93.3264218,0.0524153342 92.9952913,0.0524153342 L1.25278413,0.0524153342 C0.564015826,0.0524153342 0.00546975438,0.380505657 0.00546975438,0.785364665 L0.00546975438,39.1833056 C0.00546975438,39.2076589 0.0136743859,39.2307761 0.0176715141,39.2545113 C0.0136743859,39.2782465 0.00546975438,39.3012401 0.00546975438,39.3254698 C0.00546975438,39.7303288 0.564015826,40.0585427 1.25278413,40.0585427 C2.07093316,40.0585427 2.45129146,40.2978731 3.16719816,40.7955716 C3.92980814,41.3260296 4.97432085,42.052427 6.98698009,42.052427 C8.99921857,42.052427 10.0437313,41.3260296 10.8061309,40.7955716 C11.5218272,40.2978731 11.9019751,40.0585427 12.7201242,40.0585427 C13.5380628,40.0585427 13.9182108,40.2978731 14.6341175,40.7955716 C15.3967274,41.3260296 16.4410298,42.052427 18.453689,42.052427 C20.4663482,42.052427 21.5106506,41.3260296 22.2732606,40.7955716 C22.9889569,40.2978731 23.3693152,40.0585427 24.1872538,40.0585427 C25.0047718,40.0585427 25.3849197,40.2977495 26.1004056,40.795448 C26.8625949,41.325906 27.9071076,42.052427 29.9195564,42.052427 C31.9320053,42.052427 32.9763076,41.3260296 33.7389176,40.795448 C34.4544036,40.2978731 34.8347619,40.0585427 35.6527005,40.0585427 C36.4704288,40.0585427 36.8507871,40.2978731 37.5664834,40.795448 C38.3293038,41.3260296 39.3738165,42.052427 41.3864757,42.052427 C43.3987142,42.052427 44.4432269,41.3260296 45.2058369,40.795448 C45.9213229,40.2978731 46.3016812,40.0585427 47.1196198,40.0585427 C47.9373481,40.0585427 48.3177064,40.2978731 49.0334027,40.7955716 C49.7958023,41.3260296 50.8405254,42.052427 52.8529743,42.052427 C54.8656335,42.052427 55.9101462,41.3260296 56.6725458,40.7955716 C57.3880318,40.2978731 57.7683901,40.0585427 58.5865391,40.0585427 C59.4048985,40.0585427 59.7852568,40.2978731 60.5009532,40.7955716 C61.2637735,41.3260296 62.3084966,42.052427 64.3209455,42.052427 C66.3338151,42.052427 67.3783278,41.3260296 68.1411481,40.7955716 C68.8570548,40.2978731 69.2372028,40.0585427 70.0555622,40.0585427 C70.8737112,40.0585427 71.2538591,40.2978731 71.9697658,40.7955716 C72.7325862,41.3260296 73.7770989,42.052427 75.7899685,42.052427 C77.8024174,42.052427 78.8471405,41.3260296 79.6099608,40.7955716 C80.3256571,40.2978731 80.7062258,40.0585427 81.5245852,40.0585427 C82.343155,40.0585427 82.7237237,40.2978731 83.4396304,40.7955716 C84.2024507,41.3260296 85.2471738,42.052427 87.2600434,42.052427 C89.2727027,42.052427 90.3172154,41.3260296 91.0800357,40.7955716 C91.7961528,40.2978731 92.1767215,40.0585427 92.9952913,40.0585427 C93.6842699,40.0585427 94.242817,39.7303288 94.242817,39.3254698 C94.242817,39.2412838 94.2135739,39.1617955 94.1689743,39.0863866 L94.242817,0.786230012 C94.242817,0.591650446 94.1119627,0.404982629 93.8776047,0.267392377 Z" id="Shape"></path>
            </g>
            <g id="Group" transform="translate(0.022839, 51.401463)">
                <g transform="translate(0.012906, 0.011393)" id="Path">
                    <polygon points="4.73160487 2.87167012 9.34362569 2.87167012 9.34362569 4.53442499 6.66137148 4.53442499 6.66137148 6.25786436 9.13729845 6.25786436 9.13729845 7.85993475 6.66137148 7.85993475 6.66137148 11.1368969 4.73160487 11.1368969"></polygon>
                </g>
                <g transform="translate(5.328710, 2.011393)" id="Path">
                    <path d="M6.52786561,4.23359056 C6.64923458,3.94230504 6.78274044,3.72384089 6.952657,3.57819813 C7.12257356,3.43255537 7.31676391,3.35973398 7.53522805,3.35973398 C7.68087082,3.35973398 7.82651358,3.40828157 7.98429324,3.49323985 L7.98429324,5.2652268 C7.79010289,5.16813162 7.62018633,5.11958404 7.46240667,5.11958404 C7.21966873,5.11958404 7.02547838,5.21667921 6.86769872,5.42300646 C6.70991906,5.61719681 6.62496078,5.85993475 6.62496078,6.16335717 L6.62496078,9.13689692 L4.71946797,9.13689692 L4.71946797,3.49323985 L6.34581216,3.49323985 L6.52786561,4.23359056 Z"></path>
                </g>
                <g transform="translate(13.542847, 5.011393)" id="Shape">
                    <path d="M2.94926595,0.359733984 C3.72602735,0.359733984 4.35714599,0.61460882 4.85475877,1.12435849 C5.35237154,1.64624506 5.60724638,2.36232198 5.60724638,3.28472614 C5.60724638,4.15858272 5.36450844,4.87465964 4.89116946,5.4329569 C4.40569358,5.99125415 3.76243804,6.27040278 2.93712905,6.27040278 C2.11182006,6.27040278 1.48070142,5.99125415 1.01949934,5.44509379 C0.558297258,4.89893343 0.327696217,4.19499341 0.327696217,3.34541063 C0.327696217,2.45941715 0.570434155,1.74334023 1.05591003,1.18504297 C1.52924901,0.638882613 2.16036765,0.359733984 2.94926595,0.359733984 Z M2.96140285,1.80402472 C2.73080181,1.80402472 2.54874835,1.92539369 2.43951628,2.18026852 C2.31814731,2.43514336 2.25746283,2.81138716 2.25746283,3.30899994 C2.25746283,3.80661271 2.31814731,4.17071962 2.42737938,4.42559445 C2.54874835,4.66833239 2.71866491,4.80183826 2.96140285,4.80183826 C3.19200389,4.80183826 3.37405734,4.66833239 3.48328942,4.42559445 C3.60465838,4.18285651 3.66534287,3.80661271 3.66534287,3.32113683 C3.66534287,2.81138716 3.60465838,2.43514336 3.48328942,2.18026852 C3.37405734,1.92539369 3.19200389,1.80402472 2.96140285,1.80402472 Z"></path>
                </g>
                <g transform="translate(15.349966, 2.011393)" id="Path">
                    <path d="M6.54000251,4.0758109 C6.70991906,3.83307296 6.89197252,3.65101951 7.11043666,3.54178744 C7.31676391,3.42041847 7.55950185,3.35973398 7.81437668,3.35973398 C8.26344187,3.35973398 8.63968567,3.51751364 8.9309712,3.84520986 C9.23439362,4.17290608 9.38003638,4.58556057 9.38003638,5.07103645 L9.38003638,9.13689692 L7.49881736,9.13689692 L7.49881736,5.45941715 C7.49881736,5.13172093 7.38958529,4.97394127 7.14684735,4.97394127 C6.9769308,4.97394127 6.84342493,5.05889955 6.74632975,5.24095301 C6.64923458,5.41086956 6.60068699,5.6536075 6.60068699,5.96916682 L6.60068699,9.13689692 L4.74374176,9.13689692 L4.74374176,3.49323985 L6.35794905,3.49323985 L6.54000251,4.0758109 Z"></path>
                </g>
                <g transform="translate(20.163647, 1.011393)" id="Path">
                    <path d="M6.22921764,2.79407428 L7.79487734,2.79407428 L7.79487734,4.49323985 L8.7294184,4.49323985 L8.7294184,5.8647092 L7.87983562,5.8647092 L7.87983562,8.18285651 C7.87983562,8.53482652 8.01334149,8.71687998 8.30462701,8.71687998 C8.43813288,8.71687998 8.58377564,8.65619549 8.7294184,8.55910032 L8.7294184,10.0883493 C8.37744839,10.2097183 8.02547838,10.2704028 7.66137148,10.2704028 C7.07880042,10.2704028 6.65400903,10.12476 6.3748604,9.84561139 C6.10784867,9.56646276 5.96220591,9.14167137 5.96220591,8.55910032 L5.96220591,5.8647092 L5.27040278,5.8647092 L5.27040278,4.49323985 L6.07143798,4.49323985 L6.22921764,2.79407428 Z"></path>
                </g>
                <g transform="translate(32.317274, 2.011393)" id="Shape">
                    <path d="M0.521886567,0.871670116 L3.49542631,0.871670116 C4.16295564,0.871670116 4.709116,1.04158667 5.1339074,1.39355668 C5.54656189,1.7333898 5.75288914,2.23100257 5.75288914,2.87425811 C5.75288914,3.39614468 5.60724638,3.84520986 5.30382395,4.20931677 C5.01253843,4.58556057 4.56347324,4.8768461 3.96876529,5.09531024 C4.709116,5.20454232 5.17031809,5.6778813 5.35237154,6.51532718 L5.9106688,9.13689692 L3.79884873,9.13689692 L3.49542631,6.8551603 C3.44687872,6.4667796 3.34978355,6.17549407 3.21627768,6.00557751 C3.09490871,5.82352406 2.90071836,5.73856578 2.63370663,5.73856578 L2.45165318,5.73856578 L2.45165318,9.13689692 L0.521886567,9.13689692 L0.521886567,0.871670116 Z M2.45165318,2.47374051 L2.45165318,4.24572746 L2.87644457,4.24572746 C3.17986699,4.24572746 3.39833114,4.16076918 3.5561108,3.97871573 C3.71389046,3.80879917 3.79884873,3.57819813 3.79884873,3.3111864 C3.79884873,3.03203777 3.72602735,2.82571052 3.59252149,2.68006776 C3.45901562,2.54656189 3.24055148,2.47374051 2.96140285,2.47374051 L2.45165318,2.47374051 Z"></path>
                </g>
                <g transform="translate(38.628475, 5.011393)" id="Shape">
                    <path d="M0.873856578,0.820936067 C1.51711211,0.505376747 2.12395696,0.359733984 2.70652801,0.359733984 C3.1313194,0.359733984 3.49542631,0.432555366 3.82312253,0.578198129 C4.13868185,0.735977789 4.40569358,0.978715727 4.62415773,1.31854884 C4.84262187,1.64624506 4.95185394,2.08317335 4.95185394,2.59292302 L4.95185394,4.49841583 C4.95185394,5.04457619 5.06108601,5.59073656 5.29168706,6.13689692 L3.39833114,6.13689692 C3.32550976,5.97911726 3.27696217,5.7970638 3.22841458,5.60287345 C3.04636113,5.8213376 2.85217078,5.99125415 2.64584353,6.10048623 C2.43951628,6.2097183 2.23318903,6.27040278 2.00258799,6.27040278 C1.5656597,6.27040278 1.177279,6.08834933 0.82530899,5.74851622 C0.485475877,5.3965462 0.303422423,4.97175481 0.303422423,4.46200514 C0.303422423,3.33327373 1.28651107,2.6414706 3.22841458,2.39873267 C3.19200389,2.19240542 3.08277182,2.03462576 2.91285526,1.93753058 C2.7429387,1.82829851 2.51233766,1.77975092 2.20891524,1.77975092 C1.77198695,1.77975092 1.33505866,1.96180438 0.873856578,2.31377439 L0.873856578,0.820936067 Z M3.22841458,3.33327373 C2.43951628,3.40609511 2.03899868,3.69738064 2.03899868,4.2192672 C2.03899868,4.41345755 2.09968317,4.57123721 2.22105214,4.70474308 C2.3424211,4.83824895 2.47592697,4.91107033 2.64584353,4.91107033 C2.82789698,4.91107033 2.97353974,4.82611205 3.08277182,4.66833239 C3.17986699,4.51055273 3.22841458,4.30422548 3.22841458,4.06148754 L3.22841458,3.33327373 Z"></path>
                </g>
                <g transform="translate(39.926058, 2.011393)" id="Path">
                    <path d="M6.54000251,4.0758109 C6.70991906,3.83307296 6.89197252,3.65101951 7.11043666,3.54178744 C7.31676391,3.42041847 7.55950185,3.35973398 7.81437668,3.35973398 C8.26344187,3.35973398 8.63968567,3.51751364 8.9309712,3.84520986 C9.23439362,4.17290608 9.38003638,4.58556057 9.38003638,5.07103645 L9.38003638,9.13689692 L7.49881736,9.13689692 L7.49881736,5.45941715 C7.49881736,5.13172093 7.38958529,4.97394127 7.14684735,4.97394127 C6.9769308,4.97394127 6.84342493,5.05889955 6.74632975,5.24095301 C6.64923458,5.41086956 6.60068699,5.6536075 6.60068699,5.96916682 L6.60068699,9.13689692 L4.74374176,9.13689692 L4.74374176,3.49323985 L6.35794905,3.49323985 L6.54000251,4.0758109 Z"></path>
                </g>
                <g transform="translate(49.876606, 5.011393)" id="Shape">
                    <path d="M3.43474183,5.45723069 C3.27696217,5.67569483 3.09490871,5.84561139 2.90071836,5.96698036 C2.69439112,6.07621243 2.48806387,6.13689692 2.24532593,6.13689692 C1.71130247,6.13689692 1.26223728,5.85774829 0.873856578,5.31158793 C0.497612774,4.75329067 0.303422423,4.08576134 0.303422423,3.30899994 C0.303422423,2.55651233 0.497612774,1.8647092 0.885993475,1.27000125 C1.27437418,0.663156407 1.77198695,0.359733984 2.3666949,0.359733984 C2.59729594,0.359733984 2.81576008,0.408281572 3.00995044,0.505376747 C3.20414079,0.602471923 3.38619424,0.748114686 3.5561108,0.942305036 L4.06586047,0.49323985 L5.31596085,0.49323985 L5.31596085,5.90629588 C5.31596085,6.75587866 5.08535981,7.45981868 4.62415773,8.03025284 C4.15081875,8.61282389 3.49542631,8.90410941 2.63370663,8.90410941 C2.01472489,8.90410941 1.35933245,8.72205596 0.679666227,8.37008595 L0.679666227,6.51314072 C1.27437418,6.9743428 1.79626074,7.20494385 2.23318903,7.20494385 C2.57302215,7.20494385 2.86430767,7.09571177 3.09490871,6.86511073 C3.32550976,6.63450969 3.43474183,6.34322416 3.43474183,5.99125415 L3.43474183,5.45723069 Z M3.43474183,2.21667921 C3.34978355,2.11958404 3.26482527,2.04676266 3.17986699,1.99821507 C3.09490871,1.94966748 2.99781354,1.92539369 2.91285526,1.92539369 C2.69439112,1.92539369 2.52447456,2.04676266 2.40310559,2.2773637 C2.26959972,2.50796474 2.20891524,2.82352406 2.20891524,3.19976786 C2.20891524,3.58814856 2.26959972,3.90370788 2.39096869,4.13430893 C2.51233766,4.37704686 2.68225422,4.49841583 2.87644457,4.49841583 C3.05849802,4.49841583 3.20414079,4.40132066 3.30123596,4.2192672 C3.38619424,4.03721375 3.43474183,3.77020202 3.43474183,3.40609511 L3.43474183,2.21667921 Z"></path>
                </g>
                <g transform="translate(55.648720, 5.011393)" id="Shape">
                    <path d="M5.09749671,5.65142104 C4.38141979,6.06407554 3.70175356,6.27040278 3.08277182,6.27040278 C2.26959972,6.27040278 1.60207039,5.99125415 1.10445762,5.44509379 C0.594707949,4.89893343 0.339833114,4.19499341 0.339833114,3.33327373 C0.339833114,2.50796474 0.582571052,1.80402472 1.05591003,1.22145367 C1.54138591,0.65101951 2.18464145,0.359733984 2.98567664,0.359733984 C3.68961666,0.359733984 4.26005082,0.602471923 4.68484221,1.1000847 C5.1096336,1.59769747 5.32809775,2.2530899 5.32809775,3.09053579 L5.32809775,3.55173787 L2.29387352,3.55173787 C2.3788318,3.92798168 2.52447456,4.2192672 2.7429387,4.40132066 C2.94926595,4.59551101 3.21627768,4.69260618 3.5439739,4.69260618 C3.81098563,4.69260618 4.04158667,4.6319217 4.26005082,4.52268963 C4.46637807,4.40132066 4.74552669,4.19499341 5.09749671,3.90370788 L5.09749671,5.65142104 Z M3.67747977,2.55651233 L3.67747977,2.36232198 C3.67747977,2.10744714 3.61679528,1.888983 3.48328942,1.70692954 C3.34978355,1.52487609 3.17986699,1.42778091 2.97353974,1.42778091 C2.7429387,1.42778091 2.56088525,1.52487609 2.42737938,1.70692954 C2.29387352,1.90111989 2.22105214,2.18026852 2.20891524,2.55651233 L3.67747977,2.55651233 Z"></path>
                </g>
                <g transform="translate(61.300389, 0.011393)" id="Path">
                    <polygon points="3.73160487 2.87167012 8.45285777 2.87167012 8.45285777 4.53442499 5.66137148 4.53442499 5.66137148 6.05153711 8.25866742 6.05153711 8.25866742 7.6657444 5.66137148 7.6657444 5.66137148 9.44986825 8.45285777 9.44986825 8.45285777 11.1368969 3.73160487 11.1368969"></polygon>
                </g>
                <g transform="translate(65.989430, 2.011393)" id="Path">
                    <path d="M4.51314072,7.06148754 C5.11998557,7.55910032 5.64187213,7.80183826 6.09093732,7.80183826 C6.26085388,7.80183826 6.40649664,7.75329067 6.52786561,7.66833239 C6.64923458,7.58337411 6.70991906,7.46200514 6.70991906,7.31636238 C6.70991906,7.20713031 6.66137148,7.11003513 6.5642763,7.03721375 C6.46718112,6.96439237 6.28512767,6.86729719 6.01811594,6.77020202 C5.3869973,6.52746408 4.9743428,6.26045235 4.79228935,5.96916682 C4.6102359,5.6778813 4.51314072,5.38659577 4.51314072,5.10744714 C4.51314072,4.58556057 4.73160487,4.16076918 5.16853315,3.83307296 C5.59332455,3.51751364 6.12734801,3.35973398 6.74632975,3.35973398 C7.28035322,3.35973398 7.81437668,3.48110295 8.33626325,3.72384089 L8.33626325,5.39873267 C7.89933496,5.02248886 7.47454357,4.84043541 7.07402597,4.84043541 C6.89197252,4.84043541 6.75846665,4.8647092 6.66137148,4.92539369 C6.5764132,4.98607817 6.52786561,5.07103645 6.52786561,5.19240542 C6.52786561,5.36232198 6.72205596,5.50796474 7.12257356,5.62933371 C8.17848359,5.98130372 8.71250705,6.55173787 8.71250705,7.32849928 C8.71250705,7.87465964 8.49404291,8.32372482 8.05711462,8.69996863 C7.62018633,9.07621243 7.06188907,9.27040278 6.37008595,9.27040278 C5.79965179,9.27040278 5.18067005,9.10048623 4.51314072,8.77279001 L4.51314072,7.06148754 Z"></path>
                </g>
                <g transform="translate(70.920129, 2.011393)" id="Path">
                    <path d="M8.08138841,8.91843277 C7.68087082,9.14903381 7.28035322,9.27040278 6.89197252,9.27040278 C6.20016939,9.27040278 5.61759834,8.97911726 5.14425936,8.42082 C4.67092038,7.85038584 4.44031934,7.14644582 4.44031934,6.32113683 C4.44031934,5.49582784 4.68305728,4.79188782 5.16853315,4.22145367 C5.65400903,3.65101951 6.24871698,3.35973398 6.9769308,3.35973398 C7.30462701,3.35973398 7.66873392,3.43255537 8.08138841,3.59033503 L8.08138841,5.30163749 C7.82651358,5.10744714 7.59591254,5.02248886 7.40172219,5.02248886 C7.11043666,5.02248886 6.86769872,5.13172093 6.66137148,5.37445887 C6.46718112,5.60505991 6.37008595,5.90848234 6.37008595,6.27258924 C6.37008595,6.63669615 6.46718112,6.94011857 6.67350837,7.19499341 C6.86769872,7.43773135 7.09829976,7.55910032 7.37744839,7.55910032 C7.60804943,7.55910032 7.83865048,7.44986825 8.08138841,7.243541 L8.08138841,8.91843277 Z"></path>
                </g>
                <g transform="translate(79.483945, 5.011393)" id="Shape">
                    <path d="M0.873856578,0.820936067 C1.51711211,0.505376747 2.12395696,0.359733984 2.70652801,0.359733984 C3.1313194,0.359733984 3.49542631,0.432555366 3.82312253,0.578198129 C4.13868185,0.735977789 4.40569358,0.978715727 4.62415773,1.31854884 C4.84262187,1.64624506 4.95185394,2.08317335 4.95185394,2.59292302 L4.95185394,4.49841583 C4.95185394,5.04457619 5.06108601,5.59073656 5.29168706,6.13689692 L3.39833114,6.13689692 C3.32550976,5.97911726 3.27696217,5.7970638 3.22841458,5.60287345 C3.04636113,5.8213376 2.85217078,5.99125415 2.64584353,6.10048623 C2.43951628,6.2097183 2.23318903,6.27040278 2.00258799,6.27040278 C1.5656597,6.27040278 1.177279,6.08834933 0.82530899,5.74851622 C0.485475877,5.3965462 0.303422423,4.97175481 0.303422423,4.46200514 C0.303422423,3.33327373 1.28651107,2.6414706 3.22841458,2.39873267 C3.19200389,2.19240542 3.08277182,2.03462576 2.91285526,1.93753058 C2.7429387,1.82829851 2.51233766,1.77975092 2.20891524,1.77975092 C1.77198695,1.77975092 1.33505866,1.96180438 0.873856578,2.31377439 L0.873856578,0.820936067 Z M3.22841458,3.33327373 C2.43951628,3.40609511 2.03899868,3.69738064 2.03899868,4.2192672 C2.03899868,4.41345755 2.09968317,4.57123721 2.22105214,4.70474308 C2.3424211,4.83824895 2.47592697,4.91107033 2.64584353,4.91107033 C2.82789698,4.91107033 2.97353974,4.82611205 3.08277182,4.66833239 C3.17986699,4.51055273 3.22841458,4.30422548 3.22841458,4.06148754 L3.22841458,3.33327373 Z"></path>
                </g>
                <g transform="translate(84.918426, 5.011393)" id="Shape">
                    <path d="M2.3666949,1.12435849 C2.53661146,0.869483655 2.73080181,0.675293304 2.93712905,0.553924335 C3.1555932,0.420418469 3.38619424,0.359733984 3.64106908,0.359733984 C4.23577702,0.359733984 4.7212529,0.638882613 5.07322291,1.20931677 C5.42519292,1.77975092 5.60724638,2.44728025 5.60724638,3.22404166 C5.60724638,3.79447581 5.5101512,4.30422548 5.32809775,4.76542757 C5.14604429,5.22662965 4.90330635,5.59073656 4.58774703,5.85774829 C4.27218771,6.13689692 3.9202177,6.27040278 3.51970011,6.27040278 C3.32550976,6.27040278 3.1434563,6.2218552 2.96140285,6.14903381 C2.79148629,6.06407554 2.60943284,5.95484346 2.43951628,5.7970638 L2.43951628,8.77060355 L0.582571052,8.77060355 L0.582571052,0.49323985 L2.18464145,0.49323985 L2.3666949,1.12435849 Z M2.43951628,4.34063617 C2.51233766,4.44986825 2.59729594,4.52268963 2.68225422,4.57123721 C2.7672125,4.6319217 2.86430767,4.65619549 2.96140285,4.65619549 C3.19200389,4.65619549 3.36192045,4.53482652 3.49542631,4.29208859 C3.61679528,4.03721375 3.67747977,3.70951753 3.67747977,3.28472614 C3.67747977,2.85993475 3.61679528,2.52010164 3.49542631,2.30163749 C3.37405734,2.07103645 3.21627768,1.94966748 3.02208733,1.94966748 C2.82789698,1.94966748 2.68225422,2.03462576 2.58515904,2.20454232 C2.48806387,2.37445887 2.43951628,2.62933371 2.43951628,2.96916682 L2.43951628,4.34063617 Z"></path>
                </g>
                <g transform="translate(90.862323, 5.011393)" id="Shape">
                    <path d="M5.09749671,5.65142104 C4.38141979,6.06407554 3.70175356,6.27040278 3.08277182,6.27040278 C2.26959972,6.27040278 1.60207039,5.99125415 1.10445762,5.44509379 C0.594707949,4.89893343 0.339833114,4.19499341 0.339833114,3.33327373 C0.339833114,2.50796474 0.582571052,1.80402472 1.05591003,1.22145367 C1.54138591,0.65101951 2.18464145,0.359733984 2.98567664,0.359733984 C3.68961666,0.359733984 4.26005082,0.602471923 4.68484221,1.1000847 C5.1096336,1.59769747 5.32809775,2.2530899 5.32809775,3.09053579 L5.32809775,3.55173787 L2.29387352,3.55173787 C2.3788318,3.92798168 2.52447456,4.2192672 2.7429387,4.40132066 C2.94926595,4.59551101 3.21627768,4.69260618 3.5439739,4.69260618 C3.81098563,4.69260618 4.04158667,4.6319217 4.26005082,4.52268963 C4.46637807,4.40132066 4.74552669,4.19499341 5.09749671,3.90370788 L5.09749671,5.65142104 Z M3.67747977,2.55651233 L3.67747977,2.36232198 C3.67747977,2.10744714 3.61679528,1.888983 3.48328942,1.70692954 C3.34978355,1.52487609 3.17986699,1.42778091 2.97353974,1.42778091 C2.7429387,1.42778091 2.56088525,1.52487609 2.42737938,1.70692954 C2.29387352,1.90111989 2.22105214,2.18026852 2.20891524,2.55651233 L3.67747977,2.55651233 Z"></path>
                </g>
                <g transform="translate(92.414467, 2.011393)" id="Path">
                    <path d="M4.51314072,7.06148754 C5.11998557,7.55910032 5.64187213,7.80183826 6.09093732,7.80183826 C6.26085388,7.80183826 6.40649664,7.75329067 6.52786561,7.66833239 C6.64923458,7.58337411 6.70991906,7.46200514 6.70991906,7.31636238 C6.70991906,7.20713031 6.66137148,7.11003513 6.5642763,7.03721375 C6.46718112,6.96439237 6.28512767,6.86729719 6.01811594,6.77020202 C5.3869973,6.52746408 4.9743428,6.26045235 4.79228935,5.96916682 C4.6102359,5.6778813 4.51314072,5.38659577 4.51314072,5.10744714 C4.51314072,4.58556057 4.73160487,4.16076918 5.16853315,3.83307296 C5.59332455,3.51751364 6.12734801,3.35973398 6.74632975,3.35973398 C7.28035322,3.35973398 7.81437668,3.48110295 8.33626325,3.72384089 L8.33626325,5.39873267 C7.89933496,5.02248886 7.47454357,4.84043541 7.07402597,4.84043541 C6.89197252,4.84043541 6.75846665,4.8647092 6.66137148,4.92539369 C6.5764132,4.98607817 6.52786561,5.07103645 6.52786561,5.19240542 C6.52786561,5.36232198 6.72205596,5.50796474 7.12257356,5.62933371 C8.17848359,5.98130372 8.71250705,6.55173787 8.71250705,7.32849928 C8.71250705,7.87465964 8.49404291,8.32372482 8.05711462,8.69996863 C7.62018633,9.07621243 7.06188907,9.27040278 6.37008595,9.27040278 C5.79965179,9.27040278 5.18067005,9.10048623 4.51314072,8.77279001 L4.51314072,7.06148754 Z"></path>
                </g>
            </g>
        </g>
    </g>
</svg>