<?xml version="1.0" encoding="UTF-8"?>
<svg width="60px" height="64px" viewBox="0 0 60 64" version="1.1" xmlns="http://www.w3.org/2000/svg" xmlns:xlink="http://www.w3.org/1999/xlink">
    <title>Untitled</title>
    <g id="Page-1" stroke="none" stroke-width="1" fill="none" fill-rule="evenodd">
        <g id="wifi" fill="#EFBA09" fill-rule="nonzero">
            <path d="M29.88,-1.77635684e-15 C19.2912538,-0.00912189402 8.92176835,3.01704656 7.10542736e-15,8.72 L4.22,15.2 C11.8983206,10.3630497 20.8055504,7.83597907 29.88,7.92 C39.0359331,7.78905368 48.0331138,10.3179909 55.78,15.2 L60,8.72 C51.0062,2.98011752 40.5492293,-0.0472657545 29.88,-1.77635684e-15 Z M29.88,24 C23.8482045,23.9817261 17.941425,25.7190141 12.88,29 L17.1,35.72 C20.8797075,33.267447 25.2943873,31.9743282 29.8,32 C34.4029602,31.9898946 38.9130999,33.2943658 42.8,35.76 L47,29 C41.8511061,25.7486577 35.8895066,24.0156346 29.8,24 L29.87,24 L29.88,24 Z M29.88,48 C25.461722,48 21.88,51.581722 21.88,56 C21.88,60.418278 25.461722,64 29.88,64 C34.298278,64 37.88,60.418278 37.88,56 C37.88,51.581722 34.298278,48 29.88,48 Z" id="Shape"></path>
        </g>
    </g>
</svg>